Coordinates
version=1
nRows=26
nColumns=24
inDegrees=yes

Units are S.I. units (second, meters, Newtons, ...)
Angles are in degrees.

endheader
time	pelvis_tilt	pelvis_list	pelvis_rotation	pelvis_tx	pelvis_ty	pelvis_tz	hip_flexion_r	hip_adduction_r	hip_rotation_r	knee_angle_r	ankle_angle_r	subtalar_angle_r	mtp_angle_r	hip_flexion_l	hip_adduction_l	hip_rotation_l	knee_angle_l	ankle_angle_l	subtalar_angle_l	mtp_angle_l	lumbar_extension	lumbar_bending	lumbar_rotation
      4.28500000	    -10.97558180	      4.61456532	     -2.43510990	     -0.76923243	     -0.01951229	     -0.68367350	     18.48169653	     -6.20059454	     -2.21732256	    -64.02199626	    -24.85083192	    -18.11550166	      2.05714706	     27.46487058	      6.11521733	    -10.77174695	    -23.46485813	      2.10838664	     -9.64765081	      4.81986899	      7.81450750	     -5.59788171	     -0.20060017
      4.29000000	    -10.98162073	      4.52785286	     -2.33228485	     -0.76333048	     -0.01850347	     -0.68419960	     19.40473696	     -6.07644976	     -2.21608049	    -64.93778200	    -23.86151116	    -18.14931639	      2.14365703	     26.87516327	      6.17102341	    -10.59596960	    -23.11760654	      2.32508235	     -9.57025095	      4.81166050	      7.80897636	     -5.50560010	     -0.46369839
      4.29500000	    -11.00546575	      4.41411663	     -2.24881824	     -0.75746361	     -0.01751406	     -0.68475017	     20.33974126	     -5.92189573	     -2.20469043	    -65.76653988	    -22.77235833	    -18.04499108	      2.30962131	     26.29961925	      6.19810698	    -10.39099178	    -22.75979542	      2.54433878	     -9.54223615	      4.76525232	      7.82289062	     -5.36867890	     -0.66882179
      4.30000000	    -11.03314161	      4.29338253	     -2.16458936	     -0.75163357	     -0.01652182	     -0.68529417	     21.26538110	     -5.75844038	     -2.19838842	    -66.50449082	    -21.63728606	    -17.89117448	      2.53392521	     25.72480927	      6.21665828	    -10.18764936	    -22.38834283	      2.73294515	     -9.53415666	      4.66927259	      7.83559079	     -5.22363833	     -0.86306444
      4.30500000	    -11.05733523	      4.17279815	     -2.08418532	     -0.74581164	     -0.01553273	     -0.68584309	     22.17532998	     -5.60058907	     -2.20031814	    -67.15446020	    -20.50514029	    -17.68800013	      2.81432616	     25.13667174	      6.23538990	     -9.98218405	    -21.99703110	      2.91556432	     -9.53758513	      4.53642595	      7.84798567	     -5.07469024	     -1.05899336
      4.31000000	    -11.07523594	      4.05552038	     -2.00533263	     -0.73999174	     -0.01454612	     -0.68639569	     23.06373813	     -5.45003799	     -2.20731488	    -67.71626016	    -19.39867336	    -17.46373584	      3.14184682	     24.53076281	      6.25766868	     -9.77005968	    -21.58402243	      3.08681224	     -9.54485234	      4.36931418	      7.85506337	     -4.92601279	     -1.24309397
      4.31500000	    -11.08206648	      3.94270844	     -1.92433268	     -0.73417261	     -0.01356538	     -0.68695134	     23.92445683	     -5.30908035	     -2.22197987	    -68.19164072	    -18.34524054	    -17.23566640	      3.49614829	     23.90160338	      6.28513458	     -9.55380635	    -21.14873774	      3.25567943	     -9.54770189	      4.19262902	      7.85080781	     -4.78015012	     -1.42303789
      4.32000000	    -11.07696499	      3.83906926	     -1.84446376	     -0.72834007	     -0.01259485	     -0.68751185	     24.75548237	     -5.18462572	     -2.24385936	    -68.58244070	    -17.34928533	    -17.01400706	      3.87277503	     23.24872595	      6.32155433	     -9.34214806	    -20.69232864	      3.41105735	     -9.55808749	      3.98849999	      7.83816425	     -4.64022542	     -1.59604430
      4.32500000	    -11.05568838	      3.74362493	     -1.76227244	     -0.72248812	     -0.01163234	     -0.68807940	     25.54882428	     -5.07705808	     -2.27733142	    -68.88673411	    -16.42614794	    -16.82169772	      4.26281866	     22.56703761	      6.36668913	     -9.13665583	    -20.21506095	      3.55901210	     -9.56992662	      3.75818120	      7.81331922	     -4.50730744	     -1.76927905
      4.33000000	    -11.00059049	      3.67585656	     -1.70724032	     -0.71662311	     -0.01065344	     -0.68867785	     26.29353181	     -5.00043465	     -2.28569144	    -69.09532032	    -15.65208330	    -16.72776624	      4.92349276	     21.82451582	      6.45411716	     -8.86954232	    -19.70055933	      3.71945354	     -9.68584348	      3.11251783	      7.75707173	     -4.38836960	     -1.88859384
      4.33500000	    -10.96750221	      3.57480135	     -1.58029274	     -0.71072806	     -0.00975264	     -0.68924529	     27.02273155	     -4.91689850	     -2.39816549	    -69.23257396	    -14.88020735	    -16.65619981	      5.17829566	     21.12508899	      6.48410858	     -8.71372255	    -19.21819804	      3.92265559	     -9.53655911	      3.05198521	      7.72430798	     -4.26068233	     -2.11070199
      4.34000000	    -10.88943236	      3.49198350	     -1.49089907	     -0.70480243	     -0.00881352	     -0.68980162	     27.68264815	     -4.84240755	     -2.46609310	    -69.28032491	    -14.13645248	    -16.56320314	      5.46964348	     20.35351442	      6.53057340	     -8.55053654	    -18.69032437	      4.04409597	     -9.49433059	      2.91187779	      7.65522547	     -4.13931024	     -2.29289594
      4.34500000	    -10.79832792	      3.41732114	     -1.38656693	     -0.69887377	     -0.00790919	     -0.69035919	     28.30622054	     -4.79016774	     -2.56191749	    -69.24719586	    -13.47322681	    -16.56273311	      5.73542072	     19.56318612	      6.58611632	     -8.38180396	    -18.15256424	      4.17444060	     -9.43888140	      2.78204787	      7.57014851	     -4.02966817	     -2.48244280
      4.35000000	    -10.76343532	      3.34728615	     -1.29988389	     -0.69295085	     -0.00711076	     -0.69084603	     28.98380972	     -4.72653884	     -2.65347310	    -69.14563867	    -12.90762568	    -16.70785658	      5.87667834	     18.83605875	      6.62483951	     -8.23126771	    -17.61821108	      4.31085947	     -9.32599138	      2.74878837	      7.55073079	     -3.92396450	     -2.61043494
      4.35500000	    -10.63488390	      3.27829613	     -1.16885838	     -0.68699890	     -0.00627923	     -0.69146342	     29.51475072	     -4.71789909	     -2.79611035	    -68.95784736	    -12.29014686	    -16.71881683	      6.07918695	     18.00145352	      6.68685288	     -8.07566793	    -17.07421604	      4.47088966	     -9.22257972	      2.69248076	      7.43117812	     -3.81844983	     -2.83988848
      4.36000000	    -10.45871818	      3.17323429	     -1.06029412	     -0.68100286	     -0.00535653	     -0.69201886	     29.94406552	     -4.65170534	     -2.92740108	    -68.63815813	    -11.74311459	    -16.81130935	      6.30493666	     17.10266881	      6.69707126	     -7.93976475	    -16.51251308	      4.58117122	     -9.13391476	      2.57954316	      7.26861697	     -3.67170344	     -3.05883924
      4.36500000	    -10.35286946	      3.10234705	     -0.93116515	     -0.67508441	     -0.00463280	     -0.69256399	     30.45240404	     -4.63471867	     -3.07540327	    -68.28445731	    -11.20535014	    -16.96614962	      6.44788468	     16.30743022	      6.73322301	     -7.81970034	    -15.99065278	      4.72892360	     -8.97176372	      2.55012795	      7.16966912	     -3.56849234	     -3.29017428
      4.37000000	    -10.22839623	      3.01377578	     -0.80655414	     -0.66914550	     -0.00391774	     -0.69310675	     30.90621558	     -4.60275182	     -3.22992424	    -67.83744430	    -10.69719727	    -17.12194982	      6.54888289	     15.48621314	      6.74499892	     -7.69345545	    -15.46186141	      4.88172306	     -8.79838887	      2.54463555	      7.05436021	     -3.44161770	     -3.50342970
      4.37500000	    -10.10389427	      2.92349590	     -0.67921619	     -0.66322087	     -0.00325292	     -0.69364081	     31.33318048	     -4.57495360	     -3.39288014	    -67.31050062	    -10.20455744	    -17.29091748	      6.60372416	     14.67162445	      6.74825673	     -7.57980078	    -14.94187999	      5.03287380	     -8.61039427	      2.56050394	      6.93633287	     -3.31187197	     -3.72384686
      4.38000000	    -10.01698974	      2.85264981	     -0.55377769	     -0.65733162	     -0.00272286	     -0.69418978	     31.79148371	     -4.57499791	     -3.55117133	    -66.72886164	     -9.72662975	    -17.46387027	      6.61518350	     13.90629514	      6.76858136	     -7.44919107	    -14.43432668	      5.20695319	     -8.41697504	      2.59982669	      6.85480893	     -3.19459300	     -3.91655473
      4.38500000	     -9.87990252	      2.74129181	     -0.41013514	     -0.65142582	     -0.00213049	     -0.69470282	     32.13491163	     -4.54132602	     -3.74540788	    -66.02738246	     -9.23842415	    -17.62112624	      6.56455892	     13.09399253	      6.73734016	     -7.35832400	    -13.93874847	      5.34686304	     -8.20180646	      2.64045506	      6.71491542	     -3.04831451	     -4.17651394
      4.39000000	     -9.79710424	      2.66882584	     -0.27640939	     -0.64556422	     -0.00172218	     -0.69521757	     32.53931672	     -4.55363170	     -3.92437503	    -65.28875429	     -8.76835931	    -17.77986198	      6.48180849	     12.34566572	      6.74412084	     -7.22758261	    -13.45043021	      5.52823469	     -7.98794368	      2.69763791	      6.63046399	     -2.93604750	     -4.37887801
      4.39500000	     -9.69571907	      2.57104973	     -0.12392005	     -0.63970674	     -0.00131813	     -0.69574309	     32.87390936	     -4.55342964	     -4.13251266	    -64.44684866	     -8.29374126	    -17.91598999	      6.33569511	     11.59008136	      6.71959946	     -7.11741777	    -12.98338109	      5.69242104	     -7.75997644	      2.75369689	      6.52254610	     -2.79546337	     -4.63024312
      4.40000000	     -9.60698224	      2.48582531	      0.02849177	     -0.63387120	     -0.00100305	     -0.69625348	     33.19899518	     -4.57110012	     -4.34404116	    -63.53643118	     -7.82931372	    -18.05122659	      6.12609732	     10.85646405	      6.70286839	     -7.01646103	    -12.52747702	      5.85866052	     -7.52985254	      2.81362553	      6.42354679	     -2.67031918	     -4.87527354
      4.40500000	     -9.53542122	      2.40580169	      0.18911030	     -0.62805396	     -0.00078005	     -0.69678066	     33.51362709	     -4.60518115	     -4.56596865	    -62.55226248	     -7.37569273	    -18.16956085	      5.86883916	     10.15281467	      6.68909892	     -6.90593082	    -12.09166562	      6.03331118	     -7.29352224	      2.88059468	      6.34211334	     -2.54196407	     -5.12587109
      4.41000000	     -9.47672172	      2.33505669	      0.35774088	     -0.62226207	     -0.00064257	     -0.69728818	     33.81437811	     -4.65669049	     -4.79831927	    -61.49634250	     -6.94190154	    -18.28214307	      5.56452675	      9.47451101	      6.67971974	     -6.80718664	    -11.67158218	      6.20598057	     -7.05804545	      2.95235892	      6.27002034	     -2.43208085	     -5.38382488
